<mxfile host="app.diagrams.net" modified="2024-04-24T16:01:42.468Z" agent="Mozilla/5.0 (Windows NT 10.0; Win64; x64) AppleWebKit/537.36 (KHTML, like Gecko) Chrome/123.0.0.0 Safari/537.36" version="24.2.3" etag="U26bojIYehoLX3AJ94EF" type="github">
  <diagram name="Page-1" id="uHs-3CvCPrh22fPCXdtp">
    <mxGraphModel>
      <root>
        <mxCell id="0" />
        <mxCell id="1" parent="0" />
      </root>
    </mxGraphModel>
  </diagram>
</mxfile>
